<svg width="30" height="18" viewBox="0 0 30 18" fill="none" xmlns="http://www.w3.org/2000/svg">
<path d="M16.5844 1.90315L15.4781 0.222801C15.2953 -0.0689687 14.7234 -0.0795187 14.5219 0.222801L13.4156 1.90315L10.9641 2.1668C10.5281 2.21601 10.3406 2.62028 10.6641 2.86284L12.4453 4.1635L12.0234 5.995C11.9578 6.322 12.4078 6.5751 12.8109 6.4239L15.0094 5.5521L17.1937 6.4098C17.5969 6.561 18.0516 6.3079 17.9813 5.981L17.5594 4.1495L19.3406 2.86284C19.6594 2.6238 19.4766 2.21953 19.0406 2.1668L16.5891 1.90315H16.5844ZM12 9.0007C11.1703 9.0007 10.5 9.5034 10.5 10.1256V16.8751C10.5 17.4973 11.1703 18 12 18H18C18.8297 18 19.5 17.4973 19.5 16.8751V10.1256C19.5 9.5034 18.8297 9.0007 18 9.0007H12ZM1.5 11.2505C0.6703 11.2505 0 11.7532 0 12.3754V16.8751C0 17.4973 0.6703 18 1.5 18H7.5C8.3297 18 9 17.4973 9 16.8751V12.3754C9 11.7532 8.3297 11.2505 7.5 11.2505H1.5ZM21 14.6252V16.8751C21 17.4973 21.6703 18 22.5 18H28.5C29.3297 18 30 17.4973 30 16.8751V14.6252C30 14.003 29.3297 13.5003 28.5 13.5003H22.5C21.6703 13.5003 21 14.003 21 14.6252Z" fill="#141A1B"/>
</svg>
