<svg width="82" height="82" viewBox="0 0 82 82" fill="none" xmlns="http://www.w3.org/2000/svg">
<g filter="url(#filter0_bdi_1_1009)">
<g clip-path="url(#clip0_1_1009)">
<rect x="9" y="13" width="48" height="48" rx="12" fill="url(#paint0_linear_1_1009)" fill-opacity="0.04" shape-rendering="crispEdges"/>
<g style="mix-blend-mode:plus-lighter" opacity="0.5" filter="url(#filter1_f_1_1009)">
<path d="M33 23C25.265 23 19 29.265 19 37C19 43.195 23.0075 48.4275 28.5725 50.2825C29.2725 50.405 29.535 49.985 29.535 49.6175C29.535 49.285 29.5175 48.1825 29.5175 47.01C26 47.6575 25.09 46.1525 24.81 45.365C24.6525 44.9625 23.97 43.72 23.375 43.3875C22.885 43.125 22.185 42.4775 23.3575 42.46C24.46 42.4425 25.2475 43.475 25.51 43.895C26.77 46.0125 28.7825 45.4175 29.5875 45.05C29.71 44.14 30.0775 43.5275 30.48 43.1775C27.365 42.8275 24.11 41.62 24.11 36.265C24.11 34.7425 24.6525 33.4825 25.545 32.5025C25.405 32.1525 24.915 30.7175 25.685 28.7925C25.685 28.7925 26.8575 28.425 29.535 30.2275C30.655 29.9125 31.845 29.755 33.035 29.755C34.225 29.755 35.415 29.9125 36.535 30.2275C39.2125 28.4075 40.385 28.7925 40.385 28.7925C41.155 30.7175 40.665 32.1525 40.525 32.5025C41.4175 33.4825 41.96 34.725 41.96 36.265C41.96 41.6375 38.6875 42.8275 35.5725 43.1775C36.08 43.615 36.5175 44.455 36.5175 45.7675C36.5175 47.64 36.5 49.145 36.5 49.6175C36.5 49.985 36.7625 50.4225 37.4625 50.2825C40.2418 49.3443 42.6568 47.5581 44.3677 45.1753C46.0786 42.7926 46.9993 39.9334 47 37C47 29.265 40.735 23 33 23Z" fill="white"/>
</g>
<path d="M33 23C25.265 23 19 29.265 19 37C19 43.195 23.0075 48.4275 28.5725 50.2825C29.2725 50.405 29.535 49.985 29.535 49.6175C29.535 49.285 29.5175 48.1825 29.5175 47.01C26 47.6575 25.09 46.1525 24.81 45.365C24.6525 44.9625 23.97 43.72 23.375 43.3875C22.885 43.125 22.185 42.4775 23.3575 42.46C24.46 42.4425 25.2475 43.475 25.51 43.895C26.77 46.0125 28.7825 45.4175 29.5875 45.05C29.71 44.14 30.0775 43.5275 30.48 43.1775C27.365 42.8275 24.11 41.62 24.11 36.265C24.11 34.7425 24.6525 33.4825 25.545 32.5025C25.405 32.1525 24.915 30.7175 25.685 28.7925C25.685 28.7925 26.8575 28.425 29.535 30.2275C30.655 29.9125 31.845 29.755 33.035 29.755C34.225 29.755 35.415 29.9125 36.535 30.2275C39.2125 28.4075 40.385 28.7925 40.385 28.7925C41.155 30.7175 40.665 32.1525 40.525 32.5025C41.4175 33.4825 41.96 34.725 41.96 36.265C41.96 41.6375 38.6875 42.8275 35.5725 43.1775C36.08 43.615 36.5175 44.455 36.5175 45.7675C36.5175 47.64 36.5 49.145 36.5 49.6175C36.5 49.985 36.7625 50.4225 37.4625 50.2825C40.2418 49.3443 42.6568 47.5581 44.3677 45.1753C46.0786 42.7926 46.9993 39.9334 47 37C47 29.265 40.735 23 33 23Z" fill="white"/>
<g filter="url(#filter2_f_1_1009)">
<ellipse cx="33.5" cy="60.5" rx="11.5" ry="6.5" fill="white"/>
</g>
</g>
<rect x="9" y="13" width="48" height="48" rx="12" stroke="url(#paint1_linear_1_1009)" stroke-opacity="0.5" stroke-width="0.8" shape-rendering="crispEdges"/>
</g>
<defs>
<filter id="filter0_bdi_1_1009" x="-11.4" y="-7.39999" width="92.8" height="88.8" filterUnits="userSpaceOnUse" color-interpolation-filters="sRGB">
<feFlood flood-opacity="0" result="BackgroundImageFix"/>
<feGaussianBlur in="BackgroundImageFix" stdDeviation="10"/>
<feComposite in2="SourceAlpha" operator="in" result="effect1_backgroundBlur_1_1009"/>
<feColorMatrix in="SourceAlpha" type="matrix" values="0 0 0 0 0 0 0 0 0 0 0 0 0 0 0 0 0 0 127 0" result="hardAlpha"/>
<feOffset dx="8" dy="4"/>
<feGaussianBlur stdDeviation="8"/>
<feComposite in2="hardAlpha" operator="out"/>
<feColorMatrix type="matrix" values="0 0 0 0 0 0 0 0 0 0 0 0 0 0 0 0 0 0 0.08 0"/>
<feBlend mode="normal" in2="effect1_backgroundBlur_1_1009" result="effect2_dropShadow_1_1009"/>
<feBlend mode="normal" in="SourceGraphic" in2="effect2_dropShadow_1_1009" result="shape"/>
<feColorMatrix in="SourceAlpha" type="matrix" values="0 0 0 0 0 0 0 0 0 0 0 0 0 0 0 0 0 0 127 0" result="hardAlpha"/>
<feOffset/>
<feGaussianBlur stdDeviation="4"/>
<feComposite in2="hardAlpha" operator="arithmetic" k2="-1" k3="1"/>
<feColorMatrix type="matrix" values="0 0 0 0 0.826389 0 0 0 0 0.942083 0 0 0 0 0.991667 0 0 0 0.32 0"/>
<feBlend mode="normal" in2="shape" result="effect3_innerShadow_1_1009"/>
</filter>
<filter id="filter1_f_1_1009" x="5" y="9" width="56" height="56" filterUnits="userSpaceOnUse" color-interpolation-filters="sRGB">
<feFlood flood-opacity="0" result="BackgroundImageFix"/>
<feBlend mode="normal" in="SourceGraphic" in2="BackgroundImageFix" result="shape"/>
<feGaussianBlur stdDeviation="6" result="effect1_foregroundBlur_1_1009"/>
</filter>
<filter id="filter2_f_1_1009" x="4" y="36" width="59" height="49" filterUnits="userSpaceOnUse" color-interpolation-filters="sRGB">
<feFlood flood-opacity="0" result="BackgroundImageFix"/>
<feBlend mode="normal" in="SourceGraphic" in2="BackgroundImageFix" result="shape"/>
<feGaussianBlur stdDeviation="9" result="effect1_foregroundBlur_1_1009"/>
</filter>
<linearGradient id="paint0_linear_1_1009" x1="9" y1="13" x2="57" y2="61" gradientUnits="userSpaceOnUse">
<stop stop-color="#F8FBFF"/>
<stop offset="1" stop-color="white" stop-opacity="0"/>
</linearGradient>
<linearGradient id="paint1_linear_1_1009" x1="10" y1="12" x2="55.5" y2="61" gradientUnits="userSpaceOnUse">
<stop stop-color="#D8D8D8" stop-opacity="0.05"/>
<stop offset="1" stop-color="white" stop-opacity="0.4"/>
</linearGradient>
<clipPath id="clip0_1_1009">
<rect x="9" y="13" width="48" height="48" rx="12" fill="white"/>
</clipPath>
</defs>
</svg>
