<svg width="28" height="20" viewBox="0 0 28 20" fill="none" xmlns="http://www.w3.org/2000/svg">
<path d="M14 10L3.556 6.275L4.2 20H1.4L2.072 5.73756L0 5L14 0L28 5L14 10ZM14 3.75C13.23 3.75 12.6 4.025 12.6 4.375C12.6 4.725 13.23 5 14 5C14.77 5 15.4 4.725 15.4 4.375C15.4 4.025 14.77 3.75 14 3.75ZM14 11.25L21.798 8.46256C22.792 9.63756 23.478 11.05 23.702 12.5874C23.282 12.5374 22.848 12.5 22.4 12.5C18.83 12.5 15.708 14.2124 14 16.7624C13.133 15.4634 11.9032 14.3877 10.4307 13.6404C8.95823 12.8932 7.29363 12.5003 5.6 12.5C5.152 12.5 4.718 12.5374 4.298 12.5874C4.522 11.05 5.208 9.63756 6.202 8.46256L14 11.25Z" fill="#141A1B"/>
</svg>
