<svg width="30" height="18" viewBox="0 0 30 18" fill="none" xmlns="http://www.w3.org/2000/svg">
<path d="M4.2857 7.875H5.1897C6.8437 9.8613 10.6071 11.25 15 11.25C19.3929 11.25 23.1562 9.8613 24.8103 7.875H25.7143C26.3036 7.875 26.7857 7.6219 26.7857 7.3125V3.9375C26.7857 3.6281 26.3036 3.375 25.7143 3.375H24.8103C23.1562 1.38867 19.3929 0 15 0C10.6071 0 6.8437 1.38867 5.1897 3.375H4.2857C3.6964 3.375 3.2143 3.6281 3.2143 3.9375V7.3125C3.2143 7.6219 3.6964 7.875 4.2857 7.875ZM6.9643 4.7812C6.9643 4.0043 8.404 3.375 10.1786 3.375H19.8214C21.596 3.375 23.0357 4.0043 23.0357 4.7812V5.625C23.0357 7.4883 20.1562 9 16.6071 9H13.3929C9.8437 9 6.9643 7.4883 6.9643 5.625V4.7812ZM11.7857 7.3125L12.5893 6.0469L15 5.625L12.5893 5.2031L11.7857 3.9375L10.9821 5.2031L8.5714 5.625L10.9821 6.0469L11.7857 7.3125ZM21.9375 11.2992C19.9353 11.9777 17.558 12.375 15 12.375C12.442 12.375 10.0647 11.9777 8.0625 11.2992C3.5424 11.5488 0 13.5352 0 15.975V16.3125C0 17.2441 1.4397 18 3.2143 18H8.5714V15.75C8.5714 15.1277 9.529 14.625 10.7143 14.625H19.2857C20.471 14.625 21.4286 15.1277 21.4286 15.75V18H26.7857C28.5603 18 30 17.2441 30 16.3125V15.975C30 13.5352 26.4576 11.5488 21.9375 11.2992ZM18.2143 15.75C17.625 15.75 17.1429 16.0031 17.1429 16.3125C17.1429 16.6219 17.625 16.875 18.2143 16.875C18.8036 16.875 19.2857 16.6219 19.2857 16.3125C19.2857 16.0031 18.8036 15.75 18.2143 15.75ZM11.7857 15.75C11.1964 15.75 10.7143 16.0031 10.7143 16.3125V18H12.8571V16.3125C12.8571 16.0031 12.375 15.75 11.7857 15.75Z" fill="#1A2324"/>
</svg>
