<svg width="40" height="44" viewBox="0 0 40 44" fill="none" xmlns="http://www.w3.org/2000/svg">
<path d="M16.3671 7.32183C16.2748 7.22431 10.9285 5.03515 6.08652 8.29708C1.63565 11.2963 0.0905201 16.9332 0.681804 17.0686C1.40564 17.2338 3.38871 14.5444 7.19502 13.0655C8.54522 12.5412 10.6933 13.0655 10.6933 13.0655L16.3671 7.32183Z" fill="#0FE983"/>
<path opacity="0.1" d="M10.6964 13.0648C10.0589 12.9216 9.40473 12.8446 8.74707 12.8353C9.58656 11.2841 11.1538 8.39047 12.1713 6.51569C14.5663 6.53519 16.3207 7.26835 16.374 7.31884L10.6964 13.0648Z" fill="black"/>
<path d="M25.1743 16.493C25.2679 16.5894 26.8403 21.6045 22.4025 25.2875C18.3232 28.6745 11.7724 29.0979 11.7178 28.5609C11.6515 27.9035 14.9822 26.6162 17.2563 23.5424C18.062 22.4524 17.8294 20.495 17.8294 20.495L25.1743 16.493Z" fill="#0FE983"/>
<path opacity="0.1" d="M25.382 20.3114L17.759 22.27C17.8609 21.6828 17.8832 21.0869 17.8253 20.495L25.1702 16.493C25.2287 16.5481 25.7719 18.2106 25.382 20.3114Z" fill="black"/>
<path d="M12.7283 22.6226L7.50684 17.1853C7.50684 17.1853 10.2358 10.7383 16.7023 6.4082C19.9342 4.24772 23.7197 2.6311 27.1205 1.56176C31.8053 0.0793803 35.7247 -0.347436 36.3316 0.281315C36.9384 0.910066 35.8118 4.25805 33.3972 8.09825C31.6442 10.876 29.2167 13.9142 26.2746 16.3764C20.3773 21.3055 12.7283 22.6226 12.7283 22.6226Z" fill="#C7C7C7"/>
<path d="M25.4143 14.0492C24.712 14.5755 23.8487 14.906 22.9335 14.999C22.0184 15.092 21.0927 14.9432 20.2733 14.5715C19.454 14.1998 18.778 13.6219 18.3308 12.9109C17.8835 12.1999 17.6852 11.3878 17.7609 10.5773C17.8365 9.76672 18.1828 8.99422 18.7558 8.35748C19.3289 7.72073 20.103 7.24837 20.9802 7.00015C21.8574 6.75192 22.7982 6.73899 23.6838 6.96299C24.5693 7.18699 25.3596 7.63786 25.9549 8.25854C26.7519 9.09012 27.1426 10.1669 27.0412 11.2526C26.9399 12.3383 26.3547 13.3441 25.4143 14.0492Z" fill="#A6A6A6"/>
<path d="M25.6658 13.667C24.9633 14.1928 24.1001 14.5229 23.1851 14.6155C22.2702 14.7081 21.3447 14.5591 20.5257 14.1873C19.7067 13.8156 19.031 13.2377 18.5839 12.5269C18.1369 11.816 17.9387 11.0041 18.0143 10.1938C18.0899 9.38343 18.4359 8.61109 19.0087 7.97441C19.5815 7.33773 20.3552 6.86531 21.2321 6.61688C22.1089 6.36845 23.0496 6.35518 23.935 6.57874C24.8204 6.8023 25.6108 7.25265 26.2064 7.87284C27.0046 8.70462 27.396 9.78221 27.2947 10.8687C27.1933 11.9552 26.6074 12.9618 25.6658 13.667Z" fill="#0FE983"/>
<path d="M24.7464 12.7043C24.2596 13.0697 23.6611 13.2994 23.0264 13.3643C22.3917 13.4293 21.7495 13.3265 21.181 13.0691C20.6125 12.8117 20.1433 12.4112 19.8326 11.9183C19.522 11.4253 19.384 10.8621 19.436 10.2999C19.4881 9.73766 19.7278 9.2017 20.125 8.75982C20.5221 8.31795 21.0588 7.99001 21.6671 7.8175C22.2754 7.645 22.9279 7.63568 23.5422 7.79073C24.1565 7.94578 24.7049 8.25822 25.1181 8.68853C25.6713 9.26481 25.9429 10.0114 25.8732 10.7643C25.8035 11.5172 25.3982 12.215 24.7464 12.7043Z" fill="white"/>
<path d="M24.7481 12.7048C24.4434 12.9339 24.093 13.1109 23.715 13.2268L21.1159 13.0398C20.7642 12.8715 20.4513 12.6466 20.1933 12.3766C20.0038 12.1807 19.8459 11.9625 19.7241 11.7284L25.3251 12.1311C25.1634 12.3447 24.9692 12.5378 24.7481 12.7048Z" fill="#EBEBEB"/>
<path d="M25.397 9.02481L20.2275 8.65306C20.3316 8.54742 20.4446 8.44885 20.5654 8.35819C21.218 7.86944 22.0636 7.62946 22.9165 7.69099C23.7694 7.75253 24.5597 8.11054 25.1137 8.68634C25.2178 8.79265 25.3125 8.9058 25.397 9.02481Z" fill="#EBEBEB"/>
<path d="M25.677 11.5396L19.4913 11.0933C19.4708 11.0096 19.4556 10.9249 19.4458 10.8397L25.7667 11.2987C25.742 11.3767 25.7108 11.4581 25.677 11.5396Z" fill="#EBEBEB"/>
<path d="M33.3971 8.09834L27.1204 1.55841C31.8051 0.0794713 35.7245 -0.347345 36.3314 0.281406C36.9383 0.910157 35.8168 4.25814 33.3971 8.09834Z" fill="#0FE983"/>
<path d="M28.9656 2.11463C28.9247 2.14543 28.8744 2.16481 28.821 2.17032C28.7676 2.17584 28.7135 2.16723 28.6657 2.1456C28.6178 2.12397 28.5783 2.09029 28.5521 2.04881C28.526 2.00734 28.5143 1.95995 28.5187 1.91264C28.5231 1.86533 28.5433 1.82023 28.5767 1.78305C28.6101 1.74587 28.6553 1.71829 28.7065 1.7038C28.7577 1.68931 28.8126 1.68856 28.8643 1.70164C28.916 1.71473 28.9621 1.74107 28.9968 1.77731C29.0432 1.82575 29.066 1.88844 29.0601 1.95166C29.0543 2.01488 29.0203 2.07348 28.9656 2.11463Z" fill="white"/>
<path d="M30.0813 3.27728C30.0542 3.29833 30.0226 3.3144 29.9884 3.32455C29.9542 3.33469 29.918 3.33871 29.882 3.33637C29.846 3.33403 29.8109 3.32537 29.7787 3.31091C29.7466 3.29645 29.718 3.27647 29.6947 3.25214C29.6713 3.22781 29.6537 3.19962 29.6429 3.16922C29.6321 3.13881 29.6282 3.10681 29.6315 3.07507C29.6349 3.04333 29.6453 3.0125 29.6623 2.98438C29.6793 2.95625 29.7025 2.9314 29.7305 2.91127C29.7856 2.87161 29.8562 2.85265 29.9271 2.85845C29.9979 2.86425 30.0633 2.89436 30.1093 2.9423C30.1552 2.99024 30.1781 3.05219 30.1728 3.11483C30.1676 3.17747 30.1348 3.2358 30.0813 3.27728Z" fill="white"/>
<path d="M31.198 4.44018C31.1567 4.4699 31.1064 4.48822 31.0534 4.49288C31.0004 4.49754 30.947 4.48833 30.8998 4.46639C30.8527 4.44444 30.8139 4.41075 30.7883 4.36949C30.7627 4.32823 30.7514 4.28123 30.7558 4.23435C30.7602 4.18747 30.7802 4.14277 30.8132 4.10582C30.8462 4.06887 30.8907 4.04131 30.9413 4.02656C30.9919 4.01181 31.0463 4.01052 31.0977 4.02287C31.1492 4.03521 31.1953 4.06064 31.2305 4.09598C31.2548 4.12013 31.2733 4.14837 31.2848 4.17901C31.2964 4.20965 31.3008 4.24204 31.2977 4.27422C31.2947 4.3064 31.2843 4.3377 31.2671 4.36623C31.25 4.39475 31.2265 4.41991 31.198 4.44018Z" fill="white"/>
<path d="M32.3145 5.60339C32.2733 5.63324 32.2231 5.65173 32.1701 5.65655C32.117 5.66138 32.0636 5.65233 32.0164 5.63053C31.9691 5.60873 31.9302 5.57514 31.9045 5.53396C31.8787 5.49277 31.8672 5.4458 31.8715 5.3989C31.8757 5.352 31.8955 5.30723 31.9284 5.27019C31.9612 5.23314 32.0057 5.20545 32.0562 5.19055C32.1068 5.17566 32.1612 5.17423 32.2127 5.18643C32.2641 5.19863 32.3104 5.22394 32.3457 5.25919C32.3699 5.28334 32.3883 5.31154 32.3998 5.34212C32.4114 5.37269 32.4159 5.40501 32.4129 5.43714C32.41 5.46927 32.3998 5.50056 32.3829 5.52912C32.366 5.55769 32.3427 5.58295 32.3145 5.60339Z" fill="white"/>
<path d="M33.4381 6.76682C33.3972 6.79746 33.3468 6.81669 33.2935 6.82209C33.2402 6.82749 33.1862 6.81881 33.1385 6.79715C33.0907 6.77549 33.0513 6.74182 33.0252 6.7004C32.9991 6.65897 32.9875 6.61165 32.9919 6.56441C32.9962 6.51716 33.0163 6.47212 33.0497 6.43496C33.083 6.39781 33.1281 6.37021 33.1791 6.35565C33.2302 6.34109 33.2851 6.34022 33.3367 6.35316C33.3884 6.3661 33.4345 6.39227 33.4693 6.42835C33.4925 6.45236 33.5101 6.48018 33.521 6.5102C33.532 6.54022 33.5362 6.57185 33.5333 6.6033C33.5304 6.63474 33.5205 6.66537 33.5042 6.69343C33.4878 6.72149 33.4654 6.74643 33.4381 6.76682Z" fill="white"/>
<path d="M9.00609 17.0588C8.95093 17.0984 8.88034 17.1174 8.8095 17.1116C8.73867 17.1058 8.67324 17.0757 8.62728 17.0277C8.58132 16.9798 8.5585 16.9179 8.56372 16.8552C8.56895 16.7926 8.6018 16.7342 8.65522 16.6928C8.68233 16.6717 8.71391 16.6556 8.74814 16.6455C8.78236 16.6354 8.81853 16.6313 8.85454 16.6337C8.89054 16.636 8.92565 16.6447 8.95782 16.6591C8.99 16.6736 9.01858 16.6936 9.0419 16.7179C9.06522 16.7422 9.08282 16.7704 9.09366 16.8008C9.1045 16.8312 9.10836 16.8632 9.10503 16.895C9.10169 16.9267 9.09123 16.9575 9.07424 16.9857C9.05725 17.0138 9.03408 17.0386 9.00609 17.0588Z" fill="#A6A6A6"/>
<path d="M10.1304 18.2221C10.0892 18.2519 10.039 18.2704 9.98597 18.2752C9.93296 18.2801 9.87952 18.271 9.83229 18.2492C9.78506 18.2274 9.74614 18.1938 9.72038 18.1526C9.69461 18.1115 9.68314 18.0645 9.68739 18.0176C9.69164 17.9707 9.71142 17.9259 9.74428 17.8889C9.77713 17.8518 9.8216 17.8241 9.87215 17.8092C9.92271 17.7943 9.9771 17.7929 10.0286 17.8051C10.08 17.8173 10.1263 17.8426 10.1616 17.8779C10.1858 17.902 10.2042 17.9302 10.2158 17.9608C10.2273 17.9914 10.2318 18.0237 10.2289 18.0558C10.2259 18.088 10.2157 18.1192 10.1988 18.1478C10.1819 18.1764 10.1586 18.2016 10.1304 18.2221Z" fill="#A6A6A6"/>
<path d="M11.2462 19.388C11.2053 19.4187 11.1549 19.4379 11.1016 19.4433C11.0483 19.4487 10.9943 19.44 10.9466 19.4184C10.8988 19.3967 10.8594 19.363 10.8333 19.3216C10.8072 19.2802 10.7956 19.2329 10.8 19.1856C10.8043 19.1384 10.8244 19.0933 10.8578 19.0562C10.8911 19.019 10.9362 18.9914 10.9872 18.9769C11.0383 18.9623 11.0932 18.9614 11.1448 18.9744C11.1965 18.9873 11.2426 19.0135 11.2774 19.0496C11.3006 19.0736 11.3182 19.1014 11.3291 19.1314C11.3401 19.1614 11.3443 19.1931 11.3414 19.2245C11.3385 19.256 11.3286 19.2866 11.3123 19.3146C11.2959 19.3427 11.2735 19.3676 11.2462 19.388Z" fill="#A6A6A6"/>
<path d="M12.3621 20.5476C12.3209 20.5775 12.2707 20.596 12.2177 20.6008C12.1647 20.6056 12.1112 20.5966 12.064 20.5748C12.0168 20.553 11.9778 20.5194 11.9521 20.4782C11.9263 20.437 11.9148 20.39 11.9191 20.3431C11.9233 20.2962 11.9431 20.2515 11.976 20.2144C12.0088 20.1774 12.0533 20.1497 12.1038 20.1348C12.1544 20.1199 12.2088 20.1185 12.2603 20.1307C12.3117 20.1429 12.358 20.1682 12.3933 20.2034C12.4175 20.2276 12.4359 20.2558 12.4474 20.2864C12.459 20.3169 12.4635 20.3493 12.4605 20.3814C12.4576 20.4135 12.4474 20.4448 12.4305 20.4734C12.4136 20.5019 12.3903 20.5272 12.3621 20.5476Z" fill="#A6A6A6"/>
<path d="M13.4793 21.7103C13.438 21.74 13.3877 21.7583 13.3346 21.763C13.2816 21.7677 13.2282 21.7584 13.1811 21.7365C13.1339 21.7146 13.0951 21.6809 13.0695 21.6396C13.0439 21.5983 13.0326 21.5513 13.0371 21.5045C13.0415 21.4576 13.0614 21.4129 13.0944 21.3759C13.1274 21.339 13.172 21.3114 13.2226 21.2967C13.2732 21.2819 13.3276 21.2806 13.379 21.293C13.4304 21.3053 13.4766 21.3307 13.5118 21.3661C13.536 21.3902 13.5545 21.4185 13.5661 21.4491C13.5776 21.4798 13.582 21.5122 13.579 21.5443C13.5759 21.5765 13.5655 21.6078 13.5484 21.6363C13.5313 21.6649 13.5077 21.69 13.4793 21.7103Z" fill="#A6A6A6"/>
<path opacity="0.2" d="M39.5068 0.12164C35.452 0.353706 28.4296 2.3077 21.0414 6.92117C15.5815 10.3291 11.5981 16.2932 9.74122 19.4783L7.50684 17.3804C7.50684 17.3804 10.5676 10.8605 17.8203 6.48141C21.4452 4.29651 25.6909 2.6616 29.5053 1.58017C34.2146 0.235353 38.233 -0.251986 39.5068 0.12164Z" fill="white"/>
<path d="M10.3959 23.5091L6.15039 19.0871L7.80209 17.4935L12.4466 22.3307L10.3959 23.5091Z" fill="#0FE983"/>
<path opacity="0.1" d="M12.4453 22.3308L11.4459 22.9044L7.16919 18.1028L7.80076 17.4947L12.4453 22.3308Z" fill="black"/>
<path d="M33.3299 8.68971L31.3897 8.57498L30.4775 10.2065L30.5607 8.38911L28.7959 7.66857L30.7556 7.68578L31.6471 6.15176L31.6003 7.87509L33.3299 8.68971Z" fill="#FCFCFC"/>
<path d="M32.8519 2.36207L31.7668 2.29897L31.2574 3.21111L31.3042 2.19456L30.3179 1.79183L31.4134 1.80101L31.9111 0.943939L31.8851 1.90772L32.8519 2.36207Z" fill="#FCFCFC"/>
<path d="M24.0785 21.812L22.9947 21.7477L22.4853 22.6599L22.5308 21.6444L21.5444 21.2417L22.6399 21.2509L23.1389 20.3938L23.1117 21.3576L24.0785 21.812Z" fill="#FCFCFC"/>
<path d="M4.77919 13.3504L3.69409 13.2862L3.18467 14.1983L3.23146 13.1829L2.24512 12.7802L3.34062 12.7894L3.83833 11.9323L3.81234 12.8949L4.77919 13.3504Z" fill="#FCFCFC"/>
<path opacity="0.6" d="M9.46175 22.522C7.49297 23.6934 5.7555 25.1885 4.48717 26.9749C3.1858 28.7703 2.45054 30.8398 2.35725 32.9698C2.32606 34.0495 2.47538 35.1274 2.80039 36.1686C3.13481 37.2292 3.64077 38.2417 4.30264 39.1747C4.98039 40.1244 5.79314 40.9935 6.72105 41.7609C7.66548 42.5409 8.69843 43.233 9.80352 43.8261C8.61158 43.3452 7.47928 42.7565 6.42476 42.0695C5.35759 41.3712 4.3967 40.5544 3.56581 39.6394C1.84344 37.7458 0.793606 35.4449 0.548312 33.026C0.304002 30.581 0.888787 28.0718 2.09994 25.8333C3.3111 23.5948 5.12134 21.6064 7.26035 19.9818L9.46175 22.522Z" fill="#0FE983"/>
<path d="M6.09441 25.1874L5.3199 25.3136L5.14706 26.0342L4.97422 25.3136L4.19971 25.1863L4.97162 25.0199L5.14706 24.3395L5.3238 25.0199L6.09441 25.1874Z" fill="white"/>
<path d="M3.24564 38.684L2.81289 38.7551L2.71673 39.1578L2.61926 38.7551L2.18652 38.684L2.61797 38.591L2.71673 38.2112L2.81549 38.591L3.24564 38.684Z" fill="white"/>
<path d="M3.01053 35.1881L2.57779 35.2581L2.48162 35.662L2.38546 35.2581L1.95142 35.1881L2.38286 35.0952L2.48162 34.7142L2.58039 35.0952L3.01053 35.1881Z" fill="white"/>
<path d="M5.52347 22.9401L5.09073 23.0112L4.99326 23.4139L4.8971 23.0112L4.46436 22.9401L4.8958 22.8471L4.99326 22.4673L5.09203 22.8471L5.52347 22.9401Z" fill="white"/>
<path d="M4.2697 39.5558C4.24217 39.5625 4.21787 39.5769 4.20054 39.5969C4.18322 39.6169 4.17383 39.6414 4.17383 39.6666C4.17383 39.6918 4.18322 39.7162 4.20054 39.7363C4.21787 39.7563 4.24217 39.7707 4.2697 39.7773C4.29723 39.7707 4.32153 39.7563 4.33886 39.7363C4.35619 39.7162 4.36557 39.6918 4.36557 39.6666C4.36557 39.6414 4.35619 39.6169 4.33886 39.5969C4.32153 39.5769 4.29723 39.5625 4.2697 39.5558Z" fill="white"/>
<path d="M7.85076 22.4011C7.82323 22.4077 7.79892 22.4221 7.7816 22.4421C7.76427 22.4621 7.75488 22.4866 7.75488 22.5118C7.75488 22.537 7.76427 22.5615 7.7816 22.5815C7.79892 22.6015 7.82323 22.6159 7.85076 22.6225C7.87829 22.6159 7.90259 22.6015 7.91992 22.5815C7.93724 22.5615 7.94663 22.537 7.94663 22.5118C7.94663 22.4866 7.93724 22.4621 7.91992 22.4421C7.90259 22.4221 7.87829 22.4077 7.85076 22.4011Z" fill="white"/>
<path d="M1.09392 32.2806C1.06639 32.2872 1.04209 32.3017 1.02476 32.3217C1.00743 32.3417 0.998047 32.3662 0.998047 32.3914C0.998047 32.4165 1.00743 32.441 1.02476 32.461C1.04209 32.4811 1.06639 32.4955 1.09392 32.5021C1.12145 32.4955 1.14575 32.4811 1.16308 32.461C1.1804 32.441 1.18979 32.4165 1.18979 32.3914C1.18979 32.3662 1.1804 32.3417 1.16308 32.3217C1.14575 32.3017 1.12145 32.2872 1.09392 32.2806Z" fill="white"/>
<path d="M4.04545 38.9787C4.02369 38.981 4.00365 38.9903 3.98911 39.0048C3.97458 39.0192 3.96655 39.0379 3.96655 39.0573C3.96655 39.0766 3.97458 39.0953 3.98911 39.1098C4.00365 39.1243 4.02369 39.1335 4.04545 39.1359C4.0672 39.1335 4.08724 39.1243 4.10178 39.1098C4.11631 39.0953 4.12434 39.0766 4.12434 39.0573C4.12434 39.0379 4.11631 39.0192 4.10178 39.0048C4.08724 38.9903 4.0672 38.981 4.04545 38.9787Z" fill="white"/>
<path d="M1.04979 28.4095C1.02636 28.4095 1.00388 28.4178 0.987309 28.4324C0.970737 28.447 0.961426 28.4669 0.961426 28.4876C0.961426 28.5083 0.970737 28.5281 0.987309 28.5427C1.00388 28.5574 1.02636 28.5656 1.04979 28.5656C1.07323 28.5656 1.09571 28.5574 1.11228 28.5427C1.12885 28.5281 1.13816 28.5083 1.13816 28.4876C1.13816 28.4669 1.12885 28.447 1.11228 28.4324C1.09571 28.4178 1.07323 28.4095 1.04979 28.4095Z" fill="white"/>
<path d="M1.95349 36.4247C1.89262 36.4286 1.83569 36.4528 1.79414 36.4923C1.75259 36.5317 1.72949 36.5836 1.72949 36.6375C1.72949 36.6914 1.75259 36.7433 1.79414 36.7828C1.83569 36.8223 1.89262 36.8464 1.95349 36.8504C2.01437 36.8464 2.0713 36.8223 2.11285 36.7828C2.1544 36.7433 2.17749 36.6914 2.17749 36.6375C2.17749 36.5836 2.1544 36.5317 2.11285 36.4923C2.0713 36.4528 2.01437 36.4286 1.95349 36.4247Z" fill="white"/>
<path d="M2.1867 27.6888C2.12294 27.6888 2.06179 27.7112 2.0167 27.751C1.97162 27.7908 1.94629 27.8448 1.94629 27.9011C1.94629 27.9574 1.97162 28.0114 2.0167 28.0512C2.06179 28.091 2.12294 28.1133 2.1867 28.1133C2.25046 28.1133 2.31161 28.091 2.3567 28.0512C2.40178 28.0114 2.42711 27.9574 2.42711 27.9011C2.42711 27.8448 2.40178 27.7908 2.3567 27.751C2.31161 27.7112 2.25046 27.6888 2.1867 27.6888Z" fill="white"/>
</svg>
