<svg width="30" height="18" viewBox="0 0 30 18" fill="none" xmlns="http://www.w3.org/2000/svg">
<path d="M29.3125 3.6492L26.1532 0.46055C25.872 0.17578 25.3702 0 24.8354 0H5.1624C4.6276 0 4.1259 0.17578 3.8447 0.46055L0.679789 3.6492C-0.952271 5.2945 0.492319 7.5832 3.5414 7.8469C3.762 7.8645 3.988 7.875 4.2086 7.875C5.6477 7.875 6.9268 7.4742 7.8035 6.8555C8.6802 7.4742 9.9594 7.875 11.3985 7.875C12.8375 7.875 14.1167 7.4742 14.9934 6.8555C15.8701 7.4742 17.1493 7.875 18.5884 7.875C20.033 7.875 21.3066 7.4742 22.1833 6.8555C23.0655 7.4742 24.3392 7.875 25.7782 7.875C26.0043 7.875 26.2249 7.8645 26.4454 7.8469C29.5055 7.5867 30.9556 5.298 29.3181 3.6492H29.3125ZM26.6715 8.9613H26.666C26.3737 8.9859 26.076 9 25.7727 9C25.089 9 24.4329 8.9332 23.8209 8.8137V13.5H6.177V8.8102C5.5594 8.9332 4.8978 9 4.2141 9C3.9108 9 3.6076 8.9859 3.3153 8.9613H3.3098C3.0838 8.9402 2.8632 8.9156 2.6482 8.8805V15.75C2.6482 16.991 4.2306 18 6.177 18H23.8209C25.7672 18 27.3497 16.991 27.3497 15.75V8.8805C27.1291 8.9156 26.9086 8.9437 26.6715 8.9613Z" fill="#141A1B"/>
</svg>
