<svg width="69" height="69" viewBox="0 0 69 69" fill="none" xmlns="http://www.w3.org/2000/svg">
<rect width="68.75" height="68.75" rx="34.375" fill="white"/>
<path d="M34.375 0C15.3906 0 0 15.3906 0 34.375C0 53.3594 15.3906 68.75 34.375 68.75C53.3594 68.75 68.75 53.3594 68.75 34.375C68.75 15.3906 53.3594 0 34.375 0ZM34.375 6.25C49.9078 6.25 62.5 18.8422 62.5 34.375C62.5 47.248 53.8417 58.0771 42.038 61.4166C41.893 61.1178 41.7935 60.7905 41.803 60.4187C41.8514 58.5296 41.803 54.1212 41.803 52.5024C41.803 49.7243 40.0452 47.7539 40.0452 47.7539C40.0452 47.7539 53.833 47.9095 53.833 33.197C53.833 27.5205 50.8667 24.5636 50.8667 24.5636C50.8667 24.5636 52.425 18.5035 50.3265 15.9332C47.975 15.6785 43.7632 18.1794 41.9647 19.3481C41.9647 19.3481 39.1156 18.1793 34.375 18.1793C29.6344 18.1793 26.7853 19.3481 26.7853 19.3481C24.9868 18.1794 20.775 15.6801 18.4235 15.9332C16.3266 18.5035 17.8833 24.5636 17.8833 24.5636C17.8833 24.5636 14.917 27.5174 14.917 33.194C14.917 47.9065 28.7048 47.7539 28.7048 47.7539C28.7048 47.7539 27.1349 49.5411 26.9775 52.1027C26.0562 52.4276 24.8002 52.8107 23.6023 52.8107C20.7117 52.8107 18.5156 50.003 17.7094 48.703C16.9156 47.4202 15.2883 46.344 13.7695 46.344C12.7695 46.344 12.2803 46.8463 12.2803 47.4182C12.2803 47.9901 13.6838 48.3883 14.6088 49.4476C16.5588 51.682 16.5226 56.7078 23.4711 56.7078C24.2926 56.7078 25.7688 56.5186 26.947 56.3568C26.9405 57.9342 26.9222 59.4471 26.947 60.4156C26.9562 60.7886 26.8549 61.1171 26.709 61.4166C14.9067 58.0762 6.25 47.2469 6.25 34.375C6.25 18.8422 18.8422 6.25 34.375 6.25Z" fill="black"/>
</svg>
